<svg xmlns="http://www.w3.org/2000/svg" width="359" height="120" fill="none" viewBox="0 0 359 120"><path fill="#000" d="M15 60L105 8.03848L105 111.962L15 60Z"/><path fill="#FF6913" d="M60 60L15 85.9808L15 34.0192L60 60Z"/><path fill="#FF5D00" d="M151.667 61.9726V49.4725H162.778V21H175.278V61.9726H151.667ZM135 90.445V21H147.5V90.445H135ZM162.778 90.445V66.1393H175.278V90.445H162.778ZM205.437 90.445V77.9449H209.108L210.993 76.06V21H223.493V81.2187L214.267 90.445H205.437ZM192.441 90.445L183.215 81.2187V21H195.715V76.06L197.6 77.9449H201.27V90.445H192.441ZM231.429 73.7782V21H243.929V73.7782H231.429ZM231.429 90.445V77.9449H243.929V90.445H231.429ZM248.096 90.445V77.9449H263.374V90.445H248.096ZM269.326 90.445L274.981 62.667H296.212L291.946 41.4367L288.573 58.5003H275.775L283.315 21H300.577L311.49 75.1671H285.2L282.124 90.445H269.326ZM301.866 90.445L299.585 79.3338H312.382L314.565 90.445H301.866ZM337.184 67.8258V47.6867L346.212 36.1787V21H358.712V40.5438L337.184 67.8258ZM320.517 90.445V21H333.018V90.445H320.517ZM346.212 90.445V67.6274L344.426 65.4448L352.363 55.3257L358.712 63.2623V90.445H346.212Z"/></svg>