<svg width="61" height="26" viewBox="0 0 61 26" fill="none" xmlns="http://www.w3.org/2000/svg">
<path d="M58.4118 1C56.5372 1 15.2708 1 14.1776 1C13.2207 1 12.4448 1.7849 12.4448 2.75306C12.4448 3.72122 13.2207 4.50612 14.1776 4.50612H28.2589L27.1376 11.1093H8.45512C7.49818 11.1093 6.72236 11.8942 6.72236 12.8624C6.72236 13.8305 7.49818 14.6154 8.45512 14.6154H26.5422L25.4209 21.2186H2.73275C1.77581 21.2186 1 22.0035 1 22.9717C1 23.9398 1.77581 24.7247 2.73275 24.7247C3.12366 24.7247 53.6722 24.7247 54.9783 24.7247C55.8222 24.7247 56.5432 24.1098 56.686 23.2685L60.1193 3.05108C60.2995 1.99866 59.4988 1 58.4118 1ZM51.8885 4.50612L41.1836 10.6964L34.6835 4.50612H51.8885ZM53.5179 21.2186H28.9371L31.4761 6.26666L39.7422 14.1388C40.2974 14.6677 41.1287 14.7667 41.7897 14.3844L56.0821 6.11952L53.5179 21.2186Z" fill="#E63832" stroke="#E63832" stroke-width="0.924136"/>
</svg>
