<svg width="297.7200073242187" height="76.44168489198577" viewBox="0 0 370 95.00007629394531" class="css-1j8o68f">
    <defs id="SvgjsDefs3662"></defs>
    <g id="SvgjsG3663" featurekey="symbolFeature-0"
        transform="matrix(1.25,0,0,1.25,-12.499991655349731,-14.999847412109375)" fill="#ff5d00">
        <g xmlns="http://www.w3.org/2000/svg" transform="translate(0,-952.36218)">
            <!-- <path
                d="m 60.7828,964.36215 27.1809,0.8834 -27.1809,25.9958 z m -1.9745,1.4513 0,26.7845 -25.2681,0 c 8.6166,-8.7334 16.8796,-17.8103 25.2681,-26.7845 z m 27.7053,3.628 3.4864,1.1989 -12.5877,7.4768 z m -68.1835,2.9656 5.5226,0 12.8654,14.0705 -5.9854,6.1204 -12.4026,0 c 9e-4,-6.7347 0,-13.4597 0,-20.1909 z m -1.9746,1.2304 0,5.8364 -6.3555,0 z m 3.363,20.9796 38.627,0 -10.7675,29.43465 z m 39.0898,4.54286 0,41.20229 -12.5878,-6.8775 c 4.1972,-11.443 8.3886,-22.879 12.5878,-34.32479 z"
                style="text-indent:0;text-transform:none;direction:ltr;block-progression:tb;baseline-shift:baseline;color:;enable-background:accumulate;"
                fill="#ff5d00" fill-opacity="1" stroke="none" marker="none" visibility="visible" display="inline"
                overflow="visible"></path> -->
            <path d="m 60.7828,964.36215 27.1809,0.8834 -27.1809,25.9958 z"
                style="text-indent:0;text-transform:none;direction:ltr;block-progression:tb;baseline-shift:baseline;color:;enable-background:accumulate;"
                fill="#ff5d00" fill-opacity="1" stroke="none" marker="none" visibility="visible" display="inline"
                overflow="visible"></path>
            <path d=" m -1.9745,1.4513 0,26.7845 -25.2681,0 c 8.6166,-8.7334 16.8796,-17.8103 25.2681,-26.7845 z "
                style="text-indent:0;text-transform:none;direction:ltr;block-progression:tb;baseline-shift:baseline;color:;enable-background:accumulate;"
                fill="#ff5d00" fill-opacity="1" stroke="none" marker="none" visibility="visible" display="inline"
                overflow="visible"></path>
            <path d=" m 27.7053,3.628 3.4864,1.1989 -12.5877,7.4768 z "
                style="text-indent:0;text-transform:none;direction:ltr;block-progression:tb;baseline-shift:baseline;color:;enable-background:accumulate;"
                fill="#ff5d00" fill-opacity="1" stroke="none" marker="none" visibility="visible" display="inline"
                overflow="visible"></path>
            <path
                d="m -68.1835,2.9656 5.5226,0 12.8654,14.0705 -5.9854,6.1204 -12.4026,0 c 9e-4,-6.7347 0,-13.4597 0,-20.1909 z"
                style="text-indent:0;text-transform:none;direction:ltr;block-progression:tb;baseline-shift:baseline;color:;enable-background:accumulate;"
                fill="#ff5d00" fill-opacity="1" stroke="none" marker="none" visibility="visible" display="inline"
                overflow="visible"></path>
            <path d="m -1.9746,1.2304 0,5.8364 -6.3555,0 z"
                style="text-indent:0;text-transform:none;direction:ltr;block-progression:tb;baseline-shift:baseline;color:;enable-background:accumulate;"
                fill="#ff5d00" fill-opacity="1" stroke="none" marker="none" visibility="visible" display="inline"
                overflow="visible"></path>
            <path d=" m 3.363,20.9796 38.627,0 -10.7675,29.43465 z "
                style="text-indent:0;text-transform:none;direction:ltr;block-progression:tb;baseline-shift:baseline;color:;enable-background:accumulate;"
                fill="#ff5d00" fill-opacity="1" stroke="none" marker="none" visibility="visible" display="inline"
                overflow="visible"></path>
            <path d="m 39.0898,4.54286 0,41.20229 -12.5878,-6.8775 c 4.1972,-11.443 8.3886,-22.879 12.5878,-34.32479 z"
                style="text-indent:0;text-transform:none;direction:ltr;block-progression:tb;baseline-shift:baseline;color:;enable-background:accumulate;"
                fill="#ff5d00" fill-opacity="1" stroke="none" marker="none" visibility="visible" display="inline"
                overflow="visible"></path>

        </g>
    </g>
    <g id="SvgjsG3664" featurekey="nameFeature-0"
        transform="matrix(2.7716184846179317,0,0,2.7716184846179317,115.56541068893344,-24.25941652897245)"
        fill="#ff5d00">
        <path
            d="M8.32 28.52 l0 -5.04 l4.48 0 l0 -11.48 l5.04 0 l0 16.52 l-9.52 0 z M1.6 40 l0 -28 l5.04 0 l0 28 l-5.04 0 z M12.8 40 l0 -9.8 l5.04 0 l0 9.8 l-5.04 0 z M30 40 l0 -5.04 l1.48 0 l0.76 -0.76 l0 -22.2 l5.04 0 l0 24.28 l-3.72 3.72 l-3.56 0 z M24.76 40 l-3.72 -3.72 l0 -24.28 l5.04 0 l0 22.2 l0.76 0.76 l1.48 0 l0 5.04 l-3.56 0 z M40.480000000000004 33.28 l0 -21.28 l5.04 0 l0 21.28 l-5.04 0 z M40.480000000000004 40 l0 -5.04 l5.04 0 l0 5.04 l-5.04 0 z M47.2 40 l0 -5.04 l6.16 0 l0 5.04 l-6.16 0 z M55.760000000000005 40 l2.28 -11.2 l8.56 0 l-1.72 -8.56 l-1.36 6.88 l-5.16 0 l3.04 -15.12 l6.96 0 l4.4 21.84 l-10.6 0 l-1.24 6.16 l-5.16 0 z M68.88000000000001 40 l-0.92 -4.48 l5.16 0 l0.88 4.48 l-5.12 0 z M83.12 30.880000000000003 l0 -8.12 l3.64 -4.64 l0 -6.12 l5.04 0 l0 7.88 z M76.4 40 l0 -28 l5.04 0 l0 28 l-5.04 0 z M86.76000000000002 40 l0 -9.2 l-0.72 -0.88 l3.2 -4.08 l2.56 3.2 l0 10.96 l-5.04 0 z">
        </path>
    </g>
</svg>