<svg xmlns="http://www.w3.org/2000/svg" width="135" height="135" fill="none" viewBox="0 0 135 135"><path fill="#fff" d="M94 66L77.7583 37.454C77.6014 37.1782 77.0154 37.317 77 37H86.1987L102 64.5L103.5 66.5L87 96.5H77.4668H77C77.2583 96.371 77.4135 96.3565 77.6865 96.1188L93.9151 67.9574C94.2605 67.358 94.2926 66.6268 94 66Z"/><path fill="#000" d="M86 37.01C87.32 37.01 88.46 37.01 89.6 37.01C97.77 37.01 105.93 37.01 114.1 37C114.7 37 115.05 37.21 115.35 37.73C118.19 42.77 121.05 47.8 123.91 52.83C126.3 57.04 128.67 61.26 131.12 65.43C131.79 66.57 131.55 67.41 130.94 68.44C129.1 71.55 127.33 74.71 125.55 77.85C122.92 82.47 120.3 87.09 117.68 91.71C116.88 93.12 116.12 94.56 115.28 95.94C115.12 96.21 114.65 96.45 114.32 96.45C106.65 96.48 98.98 96.47 91.32 96.47C89.71 96.47 88.09 96.47 86.29 96.47C86.93 95.28 87.49 94.21 88.09 93.17C89.28 91.1 90.53 89.05 91.71 86.97C93.96 83.01 96.18 79.02 98.43 75.05C99.74 72.73 101.06 70.42 102.41 68.12C102.86 67.35 102.97 66.67 102.46 65.84C101.31 63.97 100.24 62.05 99.15 60.15C97.02 56.4 94.9 52.64 92.77 48.88C90.86 45.52 88.95 42.16 87.03 38.8C86.73 38.27 86.42 37.74 86 37.01Z"/><path fill="#F04D24" d="M102.805 67C102.755 67.3 102.68 67.69 102.5 68C101.048 70.5 99.71 72.68 98.4 75C96.16 78.97 93.68 82.8 91.42 86.77C90.24 88.85 88.99 90.89 87.8 92.97C87.2 94.01 86.65 95.32 86 96.5C87.81 96.5 89.39 96.5 91 96.5C98.67 96.5 106.84 96.52 114.5 96.5C114.83 96.5 115.33 95.77 115.5 95.5C116.34 94.12 117.2 92.91 118 91.5C120.62 86.88 123.5 81.5 126 77C127.751 73.8482 129 72 131 68.5C131.26 68.07 131.41 67.4 131.5 67H102.805Z"/><path fill="#F04D24" d="M31.03 82.15C31.58 82.15 31.92 82.15 32.26 82.15C43.96 82.15 55.67 82.14 67.37 82.14C69.12 82.14 69.12 82.15 68.25 80.6C67.15 78.64 66.08 76.67 64.93 74.74C64.75 74.44 64.21 74.2 63.83 74.19C62.04 74.13 60.24 74.15 58.45 74.15C49.86 74.16 41.27 74.23 32.67 74.15C28.92 74.11 25.68 72.58 23.2 69.74C20.63 66.8 18.86 63.29 16.71 60.05C16.66 59.97 16.65 59.87 16.54 59.55C17.84 59.55 19.05 59.55 20.25 59.55C34.52 59.55 48.79 59.55 63.06 59.54C63.16 59.54 63.26 59.53 63.36 59.54C64.26 59.66 64.8 59.38 65.27 58.47C66.31 56.4 67.56 54.44 68.72 52.43C69.04 51.88 68.95 51.68 68.3 51.63C67.95 51.61 67.6 51.62 67.25 51.62C51.39 51.62 35.52 51.62 19.66 51.63C17.76 51.63 15.89 51.53 14.09 50.83C11.26 49.72 9.00001 47.88 7.29001 45.41C5.56001 42.91 3.97001 40.31 2.32001 37.75C2.23001 37.61 2.16 37.45 2 37.15C2.43 37.1 2.78 37.04 3.13 37.04C10.03 37.03 16.93 37.03 23.83 37.03C40.96 37.03 58.1 37.03 75.23 37.04C77.93 37.04 77.67 36.72 79 39C81.57 43.42 83.98 48.06 86.5 52.5C87.68 54.58 88.82 56.42 90 58.5C91.39 60.95 93 63.5 94 66C94.41 66.69 94.39 67.3421 94 68.0221C92.16 71.2221 90.33 74.3121 88.5 77.5221C86.37 81.2421 84.13 84.9 82 88.63C80.67 90.97 79.35 93.32 78.04 95.67C77.72 96.25 77.31 96.49 76.61 96.49C66.67 96.47 56.74 96.44 46.8 96.5C43.87 96.52 41.43 95.45 39.21 93.68C37.69 92.47 36.58 90.91 35.55 89.27C34.28 87.24 32.93 85.26 31.63 83.26C31.47 82.98 31.32 82.67 31.03 82.15Z"/></svg>